<svg width="51" height="50" viewBox="0 0 51 50" fill="none" xmlns="http://www.w3.org/2000/svg">
    <rect x="0.375" width="50" height="50" rx="10" fill="#FFEADC" />
    <path fill-rule="evenodd" clip-rule="evenodd"
        d="M31.0834 39.2499C31.0905 40.7082 31.0834 42.1665 31.0626 43.6248C31.0001 43.7986 30.8822 43.9165 30.7084 43.979C27.2084 44.0069 23.7084 44.0069 20.2085 43.979C20.0347 43.9165 19.9168 43.7986 19.8543 43.6248C19.8335 42.1665 19.8264 40.7082 19.8335 39.2499C19.8681 39.0353 19.8889 38.8132 19.896 38.5832C20.0026 38.4011 20.1622 38.2969 20.3751 38.2707C23.7918 38.2428 27.2084 38.2428 30.6251 38.2707C30.7801 38.3165 30.8984 38.4069 30.9792 38.5415C31.0217 38.7819 31.0563 39.0182 31.0834 39.2499Z"
        fill="#FEB280" />
    <path opacity="0.998" fill-rule="evenodd" clip-rule="evenodd"
        d="M17.4167 10.0026C22.875 9.99565 28.3333 10.0026 33.7916 10.0234C34.015 10.1357 34.14 10.3162 34.1666 10.5651C33.8321 19.4736 33.5054 28.3832 33.1875 37.2941C33.1504 37.7587 33.0187 38.1891 32.7917 38.5858C32.7104 37.5016 32.6204 36.4183 32.5208 35.3358C32.0962 31.1757 31.1379 27.1479 29.6458 23.2525C28.4813 20.2712 26.8563 17.5767 24.7709 15.1692C22.7255 12.853 20.2742 11.1307 17.4167 10.0026Z"
        fill="#FFAF79" />
    <path opacity="0.999" fill-rule="evenodd" clip-rule="evenodd"
        d="M17.4167 10.0024C20.2741 11.1306 22.7254 12.8528 24.7708 15.1691C26.8562 17.5766 28.4812 20.271 29.6458 23.2524C31.1378 27.1478 32.0962 31.1755 32.5207 35.3356C32.6203 36.4181 32.7103 37.5014 32.7916 38.5856C32.4303 39.3635 31.8612 39.9327 31.0832 40.2939C31.0562 40.0623 31.0216 39.826 30.9791 39.5856C30.8982 39.451 30.7799 39.3606 30.6249 39.3148C27.2083 39.2868 23.7916 39.2868 20.375 39.3148C20.1621 39.341 20.0025 39.4452 19.8958 39.6273C19.8887 39.8573 19.8679 40.0793 19.8333 40.2939C18.6271 39.6764 17.9254 38.6902 17.7292 37.3356C17.4062 28.4395 17.08 19.5438 16.75 10.6483C16.7767 10.2256 16.9992 10.0103 17.4167 10.0024Z"
        fill="#FF6600" />
    <path
        d="M23.1666 22.7879C23.1673 23.1103 23.081 23.4268 22.9168 23.7042C22.7526 23.9816 22.5166 24.2096 22.2337 24.3641C21.9508 24.5186 21.6314 24.5939 21.3093 24.5821C20.9872 24.5703 20.6742 24.4718 20.4034 24.297C20.1325 24.1222 19.9139 23.8776 19.7704 23.5889C19.627 23.3003 19.5641 22.9782 19.5883 22.6568C19.6126 22.3354 19.7231 22.0265 19.9083 21.7626C20.0934 21.4987 20.3463 21.2897 20.6403 21.1575C20.9129 21.035 21.2118 20.9826 21.5098 21.0051C21.8078 21.0276 22.0954 21.1242 22.3465 21.2863C22.5976 21.4483 22.8041 21.6706 22.9474 21.9329C23.0906 22.1952 23.166 22.4891 23.1666 22.7879Z"
        fill="#FF6600" />
    <path
        d="M23.0056 23.5224C22.6746 23.6696 22.3069 23.7129 21.9508 23.6468C21.5947 23.5807 21.267 23.4083 21.0109 23.1521C20.7548 22.896 20.5823 22.5683 20.5162 22.2122C20.4501 21.8561 20.4935 21.4884 20.6406 21.1574C20.9715 21.0103 21.3393 20.9669 21.6954 21.033C22.0515 21.0991 22.3792 21.2716 22.6353 21.5277C22.8914 21.7838 23.0639 22.1115 23.13 22.4676C23.1961 22.8237 23.1527 23.1915 23.0056 23.5224Z"
        fill="#FEB280" />
    <path
        d="M31.1666 32.7879C31.1673 33.1103 31.081 33.4268 30.9168 33.7042C30.7526 33.9816 30.5166 34.2096 30.2337 34.3641C29.9508 34.5186 29.6314 34.5939 29.3093 34.5821C28.9872 34.5703 28.6742 34.4718 28.4034 34.297C28.1325 34.1222 27.9139 33.8776 27.7704 33.5889C27.627 33.3003 27.5641 32.9782 27.5883 32.6568C27.6126 32.3354 27.7231 32.0265 27.9083 31.7626C28.0934 31.4987 28.3463 31.2897 28.6403 31.1575C28.9129 31.035 29.2118 30.9826 29.5098 31.0051C29.8078 31.0276 30.0954 31.1242 30.3465 31.2863C30.5976 31.4483 30.8041 31.6706 30.9474 31.9329C31.0906 32.1952 31.166 32.4891 31.1666 32.7879Z"
        fill="#FF6600" />
    <path
        d="M31.0056 33.5224C30.6746 33.6696 30.3069 33.7129 29.9508 33.6468C29.5947 33.5807 29.267 33.4083 29.0109 33.1521C28.7548 32.896 28.5823 32.5683 28.5162 32.2122C28.4501 31.8561 28.4935 31.4884 28.6406 31.1574C28.9715 31.0103 29.3393 30.9669 29.6954 31.033C30.0515 31.0991 30.3792 31.2716 30.6353 31.5277C30.8914 31.7838 31.0639 32.1115 31.13 32.4676C31.1961 32.8237 31.1527 33.1915 31.0056 33.5224Z"
        fill="#FEB280" />
    <path
        d="M23.1666 32.7879C23.1673 33.1103 23.081 33.4268 22.9168 33.7042C22.7526 33.9816 22.5166 34.2096 22.2337 34.3641C21.9508 34.5186 21.6314 34.5939 21.3093 34.5821C20.9872 34.5703 20.6742 34.4718 20.4034 34.297C20.1325 34.1222 19.9139 33.8776 19.7704 33.5889C19.627 33.3003 19.5641 32.9782 19.5883 32.6568C19.6126 32.3354 19.7231 32.0265 19.9083 31.7626C20.0934 31.4987 20.3463 31.2897 20.6403 31.1575C20.9129 31.035 21.2118 30.9826 21.5098 31.0051C21.8078 31.0276 22.0954 31.1242 22.3465 31.2863C22.5976 31.4483 22.8041 31.6706 22.9474 31.9329C23.0906 32.1952 23.166 32.4891 23.1666 32.7879Z"
        fill="#FF6600" />
    <path
        d="M23.0056 33.5224C22.6746 33.6696 22.3069 33.7129 21.9508 33.6468C21.5947 33.5807 21.267 33.4083 21.0109 33.1521C20.7548 32.896 20.5823 32.5683 20.5162 32.2122C20.4501 31.8561 20.4935 31.4884 20.6406 31.1574C20.9715 31.0103 21.3393 30.9669 21.6954 31.033C22.0515 31.0991 22.3792 31.2716 22.6353 31.5277C22.8914 31.7838 23.0639 32.1115 23.13 32.4676C23.1961 32.8237 23.1527 33.1915 23.0056 33.5224Z"
        fill="#FEB280" />
</svg>
    