<svg width="51" height="51" viewBox="0 0 51 51" fill="none" xmlns="http://www.w3.org/2000/svg">
    <rect x="0.125" y="0.5" width="50" height="50" rx="10" fill="#FFEADC" />
    <path
        d="M38.5439 42.3238C38.5708 42.8107 38.4979 43.298 38.3299 43.7557C38.1619 44.2135 37.9022 44.6321 37.5667 44.986C37.2313 45.3399 36.8271 45.6216 36.379 45.8139C35.9309 46.0062 35.4482 46.105 34.9606 46.1042H13.8727C13.3851 46.105 12.9024 46.0062 12.4543 45.8139C12.0062 45.6216 11.602 45.3399 11.2666 44.986C10.9311 44.6321 10.6714 44.2135 10.5034 43.7557C10.3354 43.298 10.2625 42.8107 10.2894 42.3238L11.875 13.8542H36.9583L38.5439 42.3238Z"
        fill="#FF6600" />
    <path
        d="M38.2304 43.9901C37.2449 44.447 38.3289 44.3126 17.5545 44.3126C16.8231 44.3137 16.0991 44.1655 15.4269 43.8771C14.7548 43.5887 14.1485 43.1661 13.6454 42.6352C13.1422 42.1044 12.7526 41.4764 12.5006 40.7898C12.2485 40.1031 12.1393 39.3723 12.1795 38.642L13.5681 13.8542H36.9583C38.6783 44.6978 38.7499 42.8703 38.2304 43.9901Z"
        fill="#FEB280" />
    <path
        d="M28.8958 17.4375V10.2708C28.8958 9.08288 28.4238 7.94359 27.5838 7.10358C26.7438 6.26358 25.6045 5.79167 24.4166 5.79167C23.2286 5.79167 22.0893 6.26358 21.2493 7.10358C20.4093 7.94359 19.9374 9.08288 19.9374 10.2708V17.4375C19.9374 17.6751 19.843 17.9029 19.675 18.0709C19.507 18.239 19.2792 18.3333 19.0416 18.3333C18.804 18.3333 18.5761 18.239 18.4081 18.0709C18.2401 17.9029 18.1458 17.6751 18.1458 17.4375V10.2708C18.1458 8.6077 18.8064 7.01269 19.9824 5.83668C21.1584 4.66068 22.7535 4 24.4166 4C26.0797 4 27.6747 4.66068 28.8507 5.83668C30.0267 7.01269 30.6874 8.6077 30.6874 10.2708V17.4375C30.6874 17.6751 30.593 17.9029 30.425 18.0709C30.257 18.239 30.0292 18.3333 29.7916 18.3333C29.554 18.3333 29.3261 18.239 29.1581 18.0709C28.9901 17.9029 28.8958 17.6751 28.8958 17.4375Z"
        fill="#FF6600" />
    <path
        d="M20.8333 19.2291C20.834 19.5514 20.7477 19.868 20.5835 20.1454C20.4193 20.4228 20.1833 20.6508 19.9004 20.8053C19.6175 20.9598 19.2982 21.0351 18.9761 21.0233C18.6539 21.0115 18.341 20.913 18.0701 20.7382C17.7993 20.5634 17.5806 20.3188 17.4372 20.0301C17.2937 19.7414 17.2308 19.4194 17.2551 19.098C17.2793 18.7765 17.3899 18.4676 17.575 18.2037C17.7602 17.9399 18.0131 17.7308 18.3071 17.5987C18.5796 17.4762 18.8785 17.4238 19.1765 17.4462C19.4745 17.4687 19.7621 17.5654 20.0132 17.7275C20.2643 17.8895 20.4709 18.1118 20.6141 18.3741C20.7573 18.6363 20.8327 18.9303 20.8333 19.2291Z"
        fill="#FFBA55" />
    <path
        d="M20.6721 19.9638C20.3411 20.111 19.9734 20.1543 19.6173 20.0882C19.2612 20.0221 18.9335 19.8497 18.6774 19.5936C18.4213 19.3375 18.2488 19.0097 18.1827 18.6537C18.1166 18.2976 18.16 17.9298 18.3071 17.5988C18.638 17.4517 19.0058 17.4083 19.3619 17.4744C19.718 17.5405 20.0457 17.713 20.3018 17.9691C20.5579 18.2252 20.7304 18.5529 20.7965 18.909C20.8626 19.2651 20.8192 19.6329 20.6721 19.9638Z"
        fill="#FF6600" />
    <path
        d="M29.7917 21.0208C30.7812 21.0208 31.5833 20.2187 31.5833 19.2292C31.5833 18.2397 30.7812 17.4375 29.7917 17.4375C28.8022 17.4375 28 18.2397 28 19.2292C28 20.2187 28.8022 21.0208 29.7917 21.0208Z"
        fill="#FFBA55" />
    <path
        d="M32.3268 36.6532C32.3996 36.8826 32.4237 37.1247 32.3976 37.3639C32.3715 37.6032 32.2957 37.8343 32.1752 38.0426C32.0546 38.2509 31.8918 38.4317 31.6974 38.5735C31.5029 38.7152 31.2809 38.8148 31.0458 38.8659C30.7211 38.937 30.4237 39.0997 30.1887 39.3347C29.9537 39.5697 29.791 39.8671 29.7199 40.1918C29.6688 40.4269 29.5692 40.6489 29.4275 40.8434C29.2857 41.0378 29.1049 41.2006 28.8966 41.3212C28.6883 41.4417 28.4572 41.5175 28.2179 41.5436C27.9787 41.5697 27.7366 41.5456 27.5072 41.4728C27.1935 41.3748 26.8583 41.3682 26.541 41.4539C26.2236 41.5396 25.9373 41.7139 25.7155 41.9565C25.5527 42.1341 25.3548 42.2759 25.1342 42.3729C24.9137 42.4699 24.6754 42.52 24.4345 42.52C24.1936 42.52 23.9553 42.4699 23.7348 42.3729C23.5142 42.2759 23.3163 42.1341 23.1535 41.9565C22.9274 41.72 22.641 41.5499 22.3251 41.4646C22.0093 41.3793 21.6761 41.3822 21.3618 41.4728C21.1324 41.5456 20.8903 41.5697 20.6511 41.5436C20.4118 41.5175 20.1807 41.4417 19.9724 41.3212C19.7641 41.2006 19.5833 41.0378 19.4415 40.8434C19.2998 40.6489 19.2002 40.4269 19.1491 40.1918C19.079 39.8667 18.9167 39.5687 18.6815 39.3335C18.4463 39.0983 18.1484 38.936 17.8233 38.8659C17.4265 38.7867 17.0699 38.5715 16.8148 38.2576C16.5597 37.9436 16.4221 37.5505 16.4258 37.1459C16.4258 36.689 16.587 36.5726 16.587 36.0978C16.587 34.8168 15.4583 34.8705 15.4583 33.5626C15.4583 32.2547 16.587 32.3084 16.587 31.0005C16.587 30.5257 16.4258 30.4182 16.4258 29.9524C16.4266 29.5574 16.5619 29.1745 16.8094 28.8668C17.0569 28.559 17.4018 28.3447 17.7874 28.2592C18.1125 28.1892 18.4105 28.0268 18.6457 27.7917C18.8808 27.5565 19.0432 27.2585 19.1133 26.9334C19.1997 26.5433 19.418 26.1949 19.7313 25.9469C20.0445 25.6989 20.4337 25.5664 20.8333 25.5717C21.2991 25.5717 21.4066 25.733 21.8814 25.733C23.1624 25.733 23.1087 24.6042 24.4166 24.6042C25.7245 24.6042 25.8858 26.172 27.5072 25.6524C27.7366 25.581 27.9783 25.5579 28.2171 25.5847C28.4559 25.6114 28.6865 25.6874 28.8944 25.8077C29.1024 25.9281 29.2831 26.0903 29.4252 26.2841C29.5672 26.4778 29.6676 26.6989 29.7199 26.9334C29.79 27.2585 29.9523 27.5565 30.1875 27.7917C30.4227 28.0268 30.7207 28.1892 31.0458 28.2592C31.4359 28.3457 31.7843 28.564 32.0323 28.8773C32.2803 29.1905 32.4128 29.5797 32.4074 29.9792C32.4074 30.4451 32.2462 30.5526 32.2462 31.0274C32.2462 32.3084 33.3749 32.2547 33.3749 33.5626C33.3749 34.8705 31.8162 35.0317 32.3268 36.6532Z"
        fill="#FFA41B" />
    <path
        d="M32.3269 36.6532C32.3997 36.8826 32.4239 37.1247 32.3977 37.3639C32.3716 37.6032 32.2959 37.8343 32.1753 38.0426C32.0547 38.2509 31.892 38.4317 31.6975 38.5735C31.503 38.7152 31.2811 38.8148 31.0459 38.8659C30.7598 38.9296 30.4946 39.065 30.2752 39.2593C30.0559 39.4536 29.8895 39.7005 29.7917 39.9767C22.3563 43.2645 14.7327 35.5782 18.0025 28.1876C18.2799 28.089 18.5275 27.9213 18.7219 27.7002C18.9163 27.4792 19.0511 27.2121 19.1134 26.9245C19.2016 26.536 19.4206 26.1897 19.7337 25.9434C20.0469 25.6972 20.4351 25.566 20.8334 25.5717C21.2992 25.5717 21.4067 25.733 21.8815 25.733C23.1625 25.733 23.1088 24.6042 24.4167 24.6042C25.7246 24.6042 25.8859 26.172 27.5073 25.6524C27.7367 25.581 27.9785 25.5579 28.2172 25.5847C28.456 25.6114 28.6866 25.6874 28.8946 25.8077C29.1025 25.9281 29.2832 26.0903 29.4253 26.2841C29.5674 26.4778 29.6677 26.6989 29.72 26.9334C29.7901 27.2585 29.9525 27.5565 30.1876 27.7917C30.4228 28.0268 30.7208 28.1892 31.0459 28.2592C31.436 28.3457 31.7844 28.564 32.0324 28.8773C32.2804 29.1905 32.4129 29.5797 32.4075 29.9792C32.4075 30.4451 32.2463 30.5526 32.2463 31.0274C32.2463 32.3084 33.375 32.2547 33.375 33.5626C33.375 34.8705 31.8163 35.0317 32.3269 36.6532Z"
        fill="#FFC876" />
    <path
        d="M20.8334 38.0416C20.6555 38.0426 20.4813 37.9906 20.333 37.8923C20.1847 37.7939 20.0691 37.6536 20.0009 37.4893C19.9326 37.325 19.9149 37.144 19.9499 36.9696C19.9849 36.7951 20.071 36.635 20.1974 36.5097L27.364 29.343C27.5327 29.1744 27.7615 29.0796 28.0001 29.0796C28.2386 29.0796 28.4674 29.1744 28.6361 29.343C28.8048 29.5117 28.8996 29.7405 28.8996 29.9791C28.8996 30.2177 28.8048 30.4464 28.6361 30.6151C20.8961 38.3462 21.362 38.0416 20.8334 38.0416Z"
        fill="#FEB280" />
    <path
        d="M23.5206 30.8751C23.5213 31.1974 23.435 31.514 23.2708 31.7914C23.1066 32.0688 22.8706 32.2968 22.5877 32.4513C22.3048 32.6058 21.9854 32.6811 21.6633 32.6693C21.3412 32.6575 21.0282 32.559 20.7574 32.3842C20.4865 32.2094 20.2679 31.9648 20.1244 31.6761C19.981 31.3874 19.9181 31.0654 19.9423 30.744C19.9666 30.4225 20.0771 30.1136 20.2623 29.8497C20.4474 29.5859 20.7003 29.3768 20.9943 29.2447C21.2669 29.1222 21.5658 29.0697 21.8638 29.0922C22.1618 29.1147 22.4494 29.2114 22.7005 29.3735C22.9516 29.5355 23.1581 29.7578 23.3014 30.02C23.4446 30.2823 23.52 30.5763 23.5206 30.8751Z"
        fill="#FF6600" />
    <path
        d="M23.3596 31.6096C23.0286 31.7567 22.6609 31.8001 22.3048 31.734C21.9487 31.6679 21.621 31.4954 21.3649 31.2393C21.1088 30.9832 20.9363 30.6555 20.8702 30.2994C20.8041 29.9433 20.8475 29.5755 20.9946 29.2446C21.3255 29.0975 21.6933 29.0541 22.0494 29.1202C22.4055 29.1863 22.7332 29.3588 22.9893 29.6149C23.2454 29.871 23.4179 30.1987 23.484 30.5548C23.5501 30.9109 23.5067 31.2786 23.3596 31.6096Z"
        fill="#FEB280" />
    <path
        d="M28.8956 36.2501C28.8963 36.5724 28.81 36.889 28.6458 37.1664C28.4816 37.4438 28.2456 37.6718 27.9627 37.8263C27.6798 37.9808 27.3604 38.0561 27.0383 38.0443C26.7162 38.0325 26.4032 37.934 26.1324 37.7592C25.8615 37.5844 25.6429 37.3398 25.4994 37.0511C25.356 36.7624 25.2931 36.4404 25.3173 36.119C25.3416 35.7975 25.4521 35.4886 25.6373 35.2247C25.8224 34.9609 26.0753 34.7518 26.3693 34.6197C26.6419 34.4972 26.9408 34.4447 27.2388 34.4672C27.5368 34.4897 27.8244 34.5864 28.0755 34.7484C28.3266 34.9105 28.5331 35.1328 28.6764 35.395C28.8196 35.6573 28.895 35.9513 28.8956 36.2501Z"
        fill="#FF6600" />
    <path
        d="M28.7346 36.9846C28.4036 37.1317 28.0359 37.1751 27.6798 37.109C27.3237 37.0429 26.996 36.8704 26.7399 36.6143C26.4838 36.3582 26.3113 36.0305 26.2452 35.6744C26.1791 35.3183 26.2225 34.9505 26.3696 34.6196C26.7005 34.4725 27.0683 34.4291 27.4244 34.4952C27.7805 34.5613 28.1082 34.7338 28.3643 34.9899C28.6204 35.246 28.7929 35.5737 28.859 35.9298C28.9251 36.2859 28.8817 36.6536 28.7346 36.9846Z"
        fill="#FEB280" />
    <path
        d="M31.4221 19.9638C31.0911 20.111 30.7234 20.1543 30.3673 20.0882C30.0112 20.0221 29.6835 19.8497 29.4274 19.5936C29.1713 19.3375 28.9988 19.0097 28.9327 18.6537C28.8666 18.2976 28.91 17.9298 29.0571 17.5988C29.388 17.4517 29.7558 17.4083 30.1119 17.4744C30.468 17.5405 30.7957 17.713 31.0518 17.9691C31.3079 18.2252 31.4804 18.5529 31.5465 18.909C31.6126 19.2651 31.5692 19.6329 31.4221 19.9638Z"
        fill="#FF6600" />
</svg>
    