<svg width="57" height="50" viewBox="0 0 57 50" fill="none" xmlns="http://www.w3.org/2000/svg">
    <rect x="2" width="50" height="50" rx="10" fill="#FFEADC" />
    <g clip-path="url(#clip0_22_894)">
        <path
            d="M31.9814 12.5244H24.7032C18.3482 12.5244 13.1965 17.6761 13.1965 24.031C13.1965 30.3859 18.3482 35.5376 24.7032 35.5376H31.9814C38.3363 35.5376 43.488 30.3859 43.488 24.031C43.488 17.6761 38.3363 12.5244 31.9814 12.5244Z"
            fill="#FFF8F3" />
        <path fill-rule="evenodd" clip-rule="evenodd"
            d="M34.2044 26.9786C34.2044 22.2106 30.3392 18.3455 25.5712 18.3455H18.1559C13.3879 18.3455 9.52271 22.2106 9.52271 26.9786C9.52271 31.7466 13.3879 35.6118 18.1559 35.6118H20.6367L24.5252 38.7367C24.8131 38.9681 25.2407 38.7632 25.2407 38.3938V35.6118H25.5712C30.3392 35.6118 34.2044 31.7466 34.2044 26.9786Z"
            fill="#FF6600" />
        <path
            d="M25.4744 23.293H16.3469C16.1114 23.293 15.9204 23.4839 15.9204 23.7195C15.9204 23.9551 16.1114 24.146 16.3469 24.146H25.4744C25.71 24.146 25.9009 23.9551 25.9009 23.7195C25.9009 23.4839 25.71 23.293 25.4744 23.293Z"
            fill="#FFF8F3" />
        <path
            d="M20.7827 25.511H16.3469C16.1114 25.511 15.9204 25.702 15.9204 25.9375C15.9204 26.1731 16.1114 26.3641 16.3469 26.3641H20.7827C21.0183 26.3641 21.2092 26.1731 21.2092 25.9375C21.2092 25.702 21.0183 25.511 20.7827 25.511Z"
            fill="#FFF8F3" />
        <path
            d="M23.5977 27.729H16.3469C16.1114 27.729 15.9204 27.92 15.9204 28.1555C15.9204 28.3911 16.1114 28.5821 16.3469 28.5821H23.5977C23.8333 28.5821 24.0242 28.3911 24.0242 28.1555C24.0242 27.92 23.8333 27.729 23.5977 27.729Z"
            fill="#FFF8F3" />
        <path
            d="M26.5834 29.9468H16.3469C16.1114 29.9468 15.9204 30.1377 15.9204 30.3733C15.9204 30.6089 16.1114 30.7998 16.3469 30.7998H26.5834C26.8189 30.7998 27.0099 30.6089 27.0099 30.3733C27.0099 30.1377 26.8189 29.9468 26.5834 29.9468Z"
            fill="#FFF8F3" />
        <path fill-rule="evenodd" clip-rule="evenodd"
            d="M35.3779 30.6939C35.3779 28.3157 37.3059 26.3877 39.6842 26.3877H43.383C45.7613 26.3877 47.6892 28.3157 47.6892 30.6939C47.6892 33.0722 45.7613 35.0002 43.383 35.0002H42.1456L40.2059 36.5589C40.0623 36.6743 39.849 36.5721 39.849 36.3879V35.0002H39.6842C37.3059 35.0002 35.3779 33.0722 35.3779 30.6939Z"
            fill="#FF6600" />
        <path
            d="M43.7322 29.5068H39.1793C39.0618 29.5068 38.9666 29.6021 38.9666 29.7196C38.9666 29.8371 39.0618 29.9323 39.1793 29.9323H43.7322C43.8496 29.9323 43.9449 29.8371 43.9449 29.7196C43.9449 29.6021 43.8496 29.5068 43.7322 29.5068Z"
            fill="#FFF8F3" />
        <path
            d="M41.3919 30.6133H39.1793C39.0618 30.6133 38.9666 30.7085 38.9666 30.826C38.9666 30.9435 39.0618 31.0388 39.1793 31.0388H41.3919C41.5094 31.0388 41.6047 30.9435 41.6047 30.826C41.6047 30.7085 41.5094 30.6133 41.3919 30.6133Z"
            fill="#FFF8F3" />
        <path
            d="M42.796 31.7195H39.1793C39.0618 31.7195 38.9666 31.8147 38.9666 31.9322C38.9666 32.0497 39.0618 32.145 39.1793 32.145H42.796C42.9135 32.145 43.0088 32.0497 43.0088 31.9322C43.0088 31.8147 42.9135 31.7195 42.796 31.7195Z"
            fill="#FFF8F3" />
        <path fill-rule="evenodd" clip-rule="evenodd"
            d="M47.225 17.1872C47.225 14.2291 44.827 11.8311 41.8688 11.8311H37.2683C34.3101 11.8311 31.9121 14.2291 31.9121 17.1872C31.9121 20.1453 34.3101 22.5434 37.2683 22.5434H38.8073L41.2199 24.4821C41.3985 24.6257 41.6638 24.4985 41.6638 24.2694V22.5434H41.8688C44.827 22.5434 47.225 20.1453 47.225 17.1872Z"
            fill="#FF6600" />
        <path
            d="M39.5205 15.2437H36.2005C36.0243 15.2437 35.8813 15.3866 35.8813 15.5629V15.5629C35.8813 15.7392 36.0243 15.8821 36.2005 15.8821H39.5205C39.6968 15.8821 39.8397 15.7392 39.8397 15.5629V15.5629C39.8397 15.3866 39.6968 15.2437 39.5205 15.2437Z"
            fill="#FFF8F3" />
        <path
            d="M41.6274 16.9038H36.2005C36.0243 16.9038 35.8813 17.0467 35.8813 17.223V17.2231C35.8813 17.3994 36.0243 17.5423 36.2005 17.5423H41.6274C41.8037 17.5423 41.9466 17.3994 41.9466 17.2231V17.223C41.9466 17.0467 41.8037 16.9038 41.6274 16.9038Z"
            fill="#FFF8F3" />
        <path
            d="M43.862 18.5637H36.2005C36.0243 18.5637 35.8813 18.7066 35.8813 18.8829V18.883C35.8813 19.0593 36.0243 19.2022 36.2005 19.2022H43.862C44.0383 19.2022 44.1812 19.0593 44.1812 18.883V18.8829C44.1812 18.7066 44.0383 18.5637 43.862 18.5637Z"
            fill="#FFF8F3" />
        <path
            d="M20.2545 16.0921C19.9167 15.7543 19.9167 15.2066 20.2545 14.8689C20.5923 14.5311 21.14 14.5311 21.4777 14.8689C21.8155 15.2066 21.8155 15.7543 21.4777 16.0921C21.14 16.4299 20.5923 16.4299 20.2545 16.0921Z"
            fill="#FFF8F3" />
        <path
            d="M28.1106 16.7155C27.9515 16.5564 27.9515 16.2985 28.1106 16.1395C28.2696 15.9804 28.5275 15.9804 28.6866 16.1395C28.8457 16.2985 28.8457 16.5564 28.6866 16.7155C28.5275 16.8746 28.2696 16.8746 28.1106 16.7155Z"
            fill="#FFF8F3" />
        <path
            d="M43.6213 24.5255C43.9814 24.5496 44.3737 24.267 44.3737 24.267C44.3737 24.267 44.0269 23.8692 43.6667 23.8451C43.3065 23.821 43.0042 23.9537 42.9916 24.1417C42.9791 24.3297 43.2608 24.5015 43.6213 24.5255Z"
            fill="#FFF8F3" />
        <path
            d="M35.9689 23.9728C35.6548 23.9666 35.3952 24.2163 35.3891 24.5304C35.3829 24.8445 35.6326 25.1041 35.9467 25.1102C36.2608 25.1164 36.5204 24.8667 36.5265 24.5526C36.5327 24.2385 36.283 23.9789 35.9689 23.9728Z"
            fill="#FFF8F3" />
        <path
            d="M32.9884 34.7862C32.6743 34.7801 32.4147 35.0297 32.4086 35.3438C32.4024 35.6579 32.6521 35.9175 32.9662 35.9237C33.2803 35.9298 33.5399 35.6802 33.546 35.3661C33.5522 35.052 33.3025 34.7924 32.9884 34.7862Z"
            fill="#FFF8F3" />
    </g>
    <defs>
        <clipPath id="clip0_22_894">
            <rect width="56" height="37.3333" fill="white" transform="translate(0.625 6.66675)" />
        </clipPath>
    </defs>
</svg>
    