<svg width="134" height="134" viewBox="0 0 134 134" fill="none" xmlns="http://www.w3.org/2000/svg">
    <path fill-rule="evenodd" clip-rule="evenodd"
        d="M50.9494 8.33515C49.3259 9.7187 48.5141 10.4105 47.6471 10.9916C45.6598 12.3236 43.4279 13.2481 41.0807 13.7115C40.0568 13.9136 38.9936 13.9985 36.8672 14.1682C31.5247 14.5945 28.8534 14.8077 26.6248 15.5949C21.4701 17.4155 17.4156 21.4701 15.5949 26.6247C14.8077 28.8534 14.5945 31.5246 14.1682 36.8672C13.9985 38.9936 13.9137 40.0567 13.7115 41.0807C13.2481 43.4278 12.3237 45.6597 10.9916 47.6471C10.4105 48.514 9.71876 49.3258 8.33519 50.9494C4.85894 55.0285 3.12074 57.0682 2.10148 59.2007C-0.255994 64.133 -0.255994 69.867 2.10148 74.7993C3.12074 76.9318 4.85889 78.9714 8.33519 83.0506C9.7186 84.674 10.4106 85.486 10.9916 86.3529C12.3237 88.3403 13.2481 90.5722 13.7115 92.9193C13.9137 93.9433 13.9985 95.0065 14.1682 97.1328C14.5945 102.475 14.8077 105.147 15.5949 107.375C17.4156 112.53 21.4701 116.584 26.6247 118.405C28.8534 119.192 31.5247 119.406 36.8672 119.832C38.9936 120.002 40.0568 120.086 41.0807 120.289C43.4279 120.752 45.6598 121.676 47.6471 123.008C48.5141 123.59 49.3259 124.281 50.9494 125.665C55.0286 129.141 57.0683 130.879 59.2008 131.899C64.1331 134.256 69.867 134.256 74.7993 131.899C76.9318 130.879 78.9715 129.141 83.0507 125.665C84.6742 124.281 85.486 123.59 86.353 123.008C88.3403 121.676 90.5722 120.752 92.9194 120.289C93.9433 120.086 95.0065 120.002 97.1328 119.832C102.475 119.406 105.147 119.192 107.375 118.405C112.53 116.584 116.585 112.53 118.405 107.375C119.192 105.147 119.406 102.475 119.832 97.1328C120.002 95.0065 120.086 93.9433 120.289 92.9193C120.752 90.5722 121.676 88.3403 123.008 86.3529C123.59 85.486 124.281 84.6742 125.665 83.0506C129.141 78.9714 130.879 76.9318 131.899 74.7993C134.256 69.867 134.256 64.133 131.899 59.2007C130.879 57.0682 129.141 55.0286 125.665 50.9494C124.281 49.3258 123.59 48.514 123.008 47.6471C121.676 45.6597 120.752 43.4278 120.289 41.0807C120.086 40.0567 120.002 38.9936 119.832 36.8672C119.406 31.5246 119.192 28.8534 118.405 26.6247C116.585 21.4701 112.53 17.4155 107.375 15.5949C105.147 14.8077 102.475 14.5945 97.1328 14.1682C95.0065 13.9985 93.9433 13.9136 92.9194 13.7115C90.5722 13.2481 88.3403 12.3236 86.353 10.9916C85.486 10.4105 84.6742 9.71872 83.0507 8.33515C78.9715 4.85885 76.9318 3.12071 74.7993 2.10144C69.867 -0.256032 64.1331 -0.256032 59.2008 2.10144C57.0683 3.1207 55.0286 4.85889 50.9494 8.33515ZM96.1566 52.7542C98.2755 50.6354 98.2755 47.2 96.1566 45.0811C94.0377 42.9622 90.6024 42.9622 88.4835 45.0811L56.1485 77.4161L45.5164 66.784C43.3976 64.6652 39.9622 64.6652 37.8433 66.784C35.7244 68.9029 35.7244 72.3383 37.8433 74.4572L52.3119 88.9258C54.4308 91.0447 57.8662 91.0447 59.9851 88.9258L96.1566 52.7542Z"
        fill="white" />
</svg>
    