<svg width="64" height="64" viewBox="0 0 64 64" fill="none" xmlns="http://www.w3.org/2000/svg">
    <rect width="64" height="64" rx="8.20513" fill="#FEEFC9" />
    <g clip-path="url(#clip0_3049_36656)">
        <path
            d="M29.8474 26.7181L34.0792 58.9205L11.0688 58.9007C9.61356 48.3601 7.97303 38.2089 5.4848 29.8713L5.12231 27.9792L29.8474 26.7181Z"
            fill="#EA493D" />
        <path
            d="M51.0665 21.9373C51.5354 31.6707 52.9606 41.9161 55.0869 52.5313L34.0743 58.9168L29.8431 26.7187L51.0665 21.9373Z"
            fill="#AA170C" />
        <path
            d="M51.0665 21.9372L51.3722 24.2633L30.2111 29.4852L5.47992 29.8675L5.11743 27.9755L29.8474 26.7181L51.0665 21.9372Z"
            fill="#E0867C" />
        <path d="M1.73463 19.795L27.4749 13.5623L51.9196 13.2001L28.1578 20.7254L1.73463 19.795Z"
            fill="#EA493D" />
        <path
            d="M52.6156 22.4285L29.9931 27.86L3.70053 28.8566C3.40044 25.7732 2.74533 22.7541 1.73462 19.7949L28.5343 18.9913L51.9153 13.2006C51.704 16.3247 51.9416 19.3987 52.6156 22.4285Z"
            fill="#EA493D" />
        <path
            d="M52.6156 22.4285L29.9931 27.86L28.5336 18.9869L51.9147 13.1962C51.704 16.3247 51.9415 19.3987 52.6156 22.4285Z"
            fill="#AA170C" />
        <path d="M14.1921 19.4202L18.2447 19.3011L24.1198 58.9097L20.9227 58.9076L14.1921 19.4202Z"
            fill="#F8B229" />
        <path d="M14.1921 19.4202L37.0552 13.4205L40.7177 13.3658L18.2446 19.3011L14.1921 19.4202Z"
            fill="#F8B229" />
        <path d="M38.0725 16.6295L43.2628 56.1258L46.5392 55.1323L42.1099 15.6283L38.0725 16.6295Z"
            fill="#F8B229" />
        <path d="M42.1098 15.6283L17.7483 15.9576L13.8557 16.8606L38.0725 16.6295L42.1098 15.6283Z"
            fill="#F8B229" />
        <path
            d="M27.5138 16.0247C27.5058 16.0302 27.4972 16.0313 27.4843 16.033C27.0275 16.1898 25.8101 15.756 25.3448 15.6808C22.2982 15.1575 19.2583 14.585 16.2761 13.7849C14.9784 13.4409 13.5743 12.9525 12.8274 11.8675C12.7632 11.7791 12.7065 11.681 12.6541 11.5824C11.995 10.3319 12.4301 8.67813 13.4658 7.72835C14.5052 6.77368 16.024 6.46853 17.4145 6.68604C18.805 6.90356 20.0856 7.58415 21.2319 8.40992C22.4789 9.30164 23.5897 10.3564 24.6149 11.4928C25.5532 12.535 26.4166 13.6399 27.2515 14.7617C27.4998 15.0853 28.1529 15.756 27.5138 16.0247Z"
            fill="#EA493D" />
        <path
            d="M27.4843 16.0331C27.0275 16.1898 25.8101 15.7561 25.3448 15.6809C22.2982 15.1576 19.2583 14.585 16.2761 13.785C14.9785 13.4409 13.5743 12.9525 12.8274 11.8675C12.8148 11.6053 12.8513 11.3498 12.9644 11.1106C13.2208 10.5623 13.824 10.2543 14.4252 10.1973C15.0227 10.1452 15.6216 10.304 16.1921 10.4797C20.2118 11.7108 23.8749 13.8596 27.4843 16.0331Z"
            fill="#AA170C" />
        <path
            d="M28.0987 15.9434C28.1078 15.9466 28.1208 15.9449 28.1337 15.9432C28.7086 15.9864 29.9812 15.1067 30.4977 14.8717C33.8592 13.3259 37.1955 11.722 40.3992 9.87591C41.7913 9.07281 43.2678 8.0783 43.7951 6.59275C43.84 6.46809 43.8801 6.33967 43.9067 6.20863C44.281 4.55846 43.2676 2.77838 41.7731 2.00275C40.2781 1.2228 38.4234 1.33897 36.8834 2.01636C35.3434 2.69375 34.0719 3.88125 32.9999 5.18767C31.8328 6.60335 30.8735 8.16765 30.0413 9.79883C29.2786 11.2933 28.6235 12.8396 28.0046 14.3944C27.8246 14.8579 27.2782 15.8313 28.0987 15.9434Z"
            fill="#EA493D" />
        <path
            d="M28.1343 15.9475C28.7092 15.9907 29.9818 15.111 30.4983 14.876C33.8598 13.3303 37.1961 11.7263 40.3998 9.88022C41.7919 9.07712 43.2684 8.0826 43.7957 6.59706C43.7295 6.29347 43.608 6.00157 43.4017 5.76478C42.9353 5.21471 42.1419 5.04188 41.4307 5.16173C40.7244 5.28533 40.0806 5.65143 39.4735 6.03029C35.209 8.70188 31.6333 12.3165 28.1343 15.9475Z"
            fill="#AA170C" />
    </g>
    <defs>
        <clipPath id="clip0_3049_36656">
            <rect width="50.6165" height="56.3197" fill="white"
                transform="translate(0 6.59497) rotate(-7.48648)" />
        </clipPath>
    </defs>
</svg>
    