<svg width="41" height="42" viewBox="0 0 41 42" fill="none" xmlns="http://www.w3.org/2000/svg">
    <circle cx="20.5" cy="21" r="20.5" fill="#FCDF9C" />
    <g clip-path="url(#clip0_3049_36768)">
        <path
            d="M21.3237 18.8511V35.0109L10.0243 33.5095C9.98991 28.2155 9.83936 23.1015 9.15546 18.8272L9.09955 17.8704L21.3237 18.8511Z"
            fill="#EA493D" />
        <path
            d="M32.0531 17.8682C31.6553 22.7001 31.694 27.8466 32.0531 33.2209L21.3215 35.0087V18.851L32.0531 17.8682Z"
            fill="#AA170C" />
        <path
            d="M32.0531 17.8682V19.0355L21.3237 20.2396L9.15331 18.825L9.0974 17.8682L21.3237 18.851L32.0531 17.8682Z"
            fill="#E0867C" />
        <path d="M7.96402 13.6132L21.0075 12.2073L33.036 13.6132L20.8806 15.7851L7.96402 13.6132Z"
            fill="#EA493D" />
        <path
            d="M32.7822 18.2109L21.3215 19.4237L8.34468 18.2109C8.39629 16.6704 8.26941 15.1386 7.96402 13.6133L21.1774 14.9542L33.0338 13.6133C32.7284 15.1407 32.6467 16.6725 32.7822 18.2109Z"
            fill="#EA493D" />
        <path
            d="M32.7822 18.2108L21.3215 19.4237L21.1774 14.952L33.0338 13.6111C32.7284 15.1407 32.6467 16.6725 32.7822 18.2108Z"
            fill="#AA170C" />
        <path d="M14.1062 14.2361L16.1041 14.44L16.4332 34.36L14.8632 34.1517L14.1062 14.2361Z"
            fill="#F8B229" />
        <path d="M14.1062 14.2361L25.7217 12.7585L27.5239 12.969L16.1041 14.4401L14.1062 14.2361Z"
            fill="#F8B229" />
        <path d="M26.0142 14.4075V34.2276L27.6873 33.9499L28.0616 14.1753L26.0142 14.4075Z"
            fill="#F8B229" />
        <path d="M28.0616 14.1754L16.0762 12.7585L14.1062 12.9516L26.0142 14.4075L28.0616 14.1754Z"
            fill="#F8B229" />
        <path
            d="M20.8677 13.4245C20.8634 13.4267 20.8591 13.4267 20.8527 13.4267C20.6183 13.4744 20.0483 13.1815 19.8247 13.1143C18.3623 12.6586 16.9063 12.1791 15.4933 11.5912C14.8783 11.3373 14.2202 11.0053 13.9234 10.4217C13.8976 10.374 13.8761 10.3219 13.8567 10.2698C13.6137 9.61022 13.9341 8.82262 14.504 8.42123C15.0761 8.01767 15.8417 7.96559 16.5106 8.16304C17.1794 8.36048 17.7644 8.77923 18.2741 9.2609C18.8289 9.78163 19.3064 10.374 19.7365 11.001C20.1301 11.576 20.4828 12.177 20.8204 12.7845C20.9215 12.9602 21.1989 13.3334 20.8677 13.4245Z"
            fill="#EA493D" />
        <path
            d="M20.8527 13.4268C20.6183 13.4745 20.0484 13.1816 19.8247 13.1143C18.3623 12.6587 16.9063 12.1792 15.4933 11.5912C14.8783 11.3373 14.2202 11.0054 13.9234 10.4217C13.9341 10.2916 13.9685 10.1679 14.0395 10.0572C14.2008 9.80337 14.517 9.69055 14.8159 9.7014C15.1127 9.71441 15.3966 9.83158 15.6654 9.95525C17.5601 10.8231 19.2204 12.1206 20.8527 13.4268Z"
            fill="#AA170C" />
        <path
            d="M21.1602 13.4224C21.1645 13.4246 21.171 13.4246 21.1774 13.4246C21.457 13.4832 22.1388 13.1317 22.4076 13.0492C24.1582 12.5046 25.9002 11.9297 27.5927 11.2267C28.3282 10.9208 29.1175 10.5259 29.4724 9.82723C29.5025 9.76865 29.5304 9.7079 29.5519 9.64498C29.8423 8.85521 29.4595 7.91139 28.7756 7.43189C28.0917 6.95022 27.1734 6.8873 26.3733 7.12163C25.5733 7.35595 24.8722 7.85932 24.2614 8.43429C23.5969 9.05699 23.0248 9.76648 22.5108 10.5172C22.0398 11.205 21.6183 11.9253 21.214 12.6522C21.0957 12.8691 20.7645 13.3139 21.1602 13.4224Z"
            fill="#EA493D" />
        <path
            d="M21.1774 13.4266C21.457 13.4852 22.1388 13.1337 22.4076 13.0513C24.1582 12.5067 25.9002 11.9317 27.5927 11.2287C28.3282 10.9228 29.1175 10.5279 29.4724 9.82926C29.4595 9.67521 29.4186 9.52333 29.3326 9.39315C29.139 9.09156 28.7605 8.95487 28.4035 8.96789C28.0487 8.98308 27.7089 9.12194 27.3863 9.26948C25.1195 10.3109 23.1302 11.8623 21.1774 13.4266Z"
            fill="#AA170C" />
    </g>
    <defs>
        <clipPath id="clip0_3049_36768">
            <rect width="25.0719" height="28.0216" fill="white"
                transform="translate(7.96402 6.98926)" />
        </clipPath>
    </defs>
</svg>
    